<svg width="20" height="20" viewBox="0 0 20 20" fill="none" xmlns="http://www.w3.org/2000/svg">
<path d="M16.6295 15.9148V8.68269H15.1228C15.2716 9.15144 15.346 9.63879 15.346 10.1447C15.346 11.0822 15.1079 11.9472 14.6317 12.7396C14.1555 13.532 13.5082 14.1589 12.6898 14.6202C11.8713 15.0815 10.9784 15.3122 10.0112 15.3122C8.54541 15.3122 7.29168 14.8081 6.25002 13.7999C5.20835 12.7917 4.68752 11.5733 4.68752 10.1447C4.68752 9.63879 4.76192 9.15144 4.91073 8.68269H3.33707V15.9148C3.33707 16.1083 3.40218 16.2701 3.53238 16.4003C3.66259 16.5305 3.82442 16.5956 4.01787 16.5956H15.9487C16.1347 16.5956 16.2947 16.5305 16.4286 16.4003C16.5625 16.2701 16.6295 16.1083 16.6295 15.9148ZM13.4598 9.96617C13.4598 9.04355 13.1232 8.25672 12.4498 7.60568C11.7764 6.95464 10.9636 6.62912 10.0112 6.62912C9.06624 6.62912 8.25709 6.95464 7.58372 7.60568C6.91036 8.25672 6.57368 9.04355 6.57368 9.96617C6.57368 10.8888 6.91036 11.6756 7.58372 12.3267C8.25709 12.9777 9.06624 13.3032 10.0112 13.3032C10.9636 13.3032 11.7764 12.9777 12.4498 12.3267C13.1232 11.6756 13.4598 10.8888 13.4598 9.96617ZM16.6295 5.94831V4.10679C16.6295 3.89846 16.5551 3.71803 16.4063 3.5655C16.2575 3.41297 16.0752 3.3367 15.8594 3.3367H13.9174C13.7017 3.3367 13.5194 3.41297 13.3706 3.5655C13.2217 3.71803 13.1473 3.89846 13.1473 4.10679V5.94831C13.1473 6.16409 13.2217 6.34638 13.3706 6.49519C13.5194 6.644 13.7017 6.7184 13.9174 6.7184H15.8594C16.0752 6.7184 16.2575 6.644 16.4063 6.49519C16.5551 6.34638 16.6295 6.16409 16.6295 5.94831ZM18.5714 3.62688V16.3724C18.5714 16.9751 18.3557 17.4922 17.9241 17.9238C17.4926 18.3553 16.9755 18.5711 16.3728 18.5711H3.62725C3.02457 18.5711 2.50746 18.3553 2.07591 17.9238C1.64436 17.4922 1.42859 16.9751 1.42859 16.3724V3.62688C1.42859 3.0242 1.64436 2.50709 2.07591 2.07554C2.50746 1.644 3.02457 1.42822 3.62725 1.42822H16.3728C16.9755 1.42822 17.4926 1.644 17.9241 2.07554C18.3557 2.50709 18.5714 3.0242 18.5714 3.62688Z" fill="black"/>
</svg>
